<!-- <svg xmlns="http://www.w3.org/2000/svg" viewBox="0 0 1440 320"><path fill="#0099ff" fill-opacity="0.1" d="M0,160L80,160C160,160,320,160,480,186.7C640,213,800,267,960,256C1120,245,1280,171,1360,133.3L1440,96L1440,0L1360,0C1280,0,1120,0,960,0C800,0,640,0,480,0C320,0,160,0,80,0L0,0Z"></path></svg> -->
<!-- <svg id="exR4Cgy0Qsa1" xmlns="http://www.w3.org/2000/svg" xmlns:xlink="http://www.w3.org/1999/xlink" viewBox="0 0 1920 1080" shape-rendering="geometricPrecision" text-rendering="geometricPrecision"><path d="M-75.007877,565.237178C690.614388,238.193594,580.969719,657.86802,1356.04411,514.195694q775.074391-143.672326,742.937159-393.208473" transform="translate(.000001 0.000002)" fill="none" stroke="#3f5787" stroke-width="3.84"/><path d="M-35.308945,718.361631c716.471206,232.522318,848.800981,15.123403,1310.064765,86.959566q461.263784,71.836163,795.869069-415.893576" transform="translate(.000001 0)" fill="none" stroke="#3f5787" stroke-width="3.84"/></svg> -->
<svg id="epd3J06bkFh1" xmlns="http://www.w3.org/2000/svg" xmlns:xlink="http://www.w3.org/1999/xlink"  shape-rendering="geometricPrecision" text-rendering="geometricPrecision">

<path d="M-296.187643,563.346753C252.035708,285.454227,433.516541,470.71591,926.917556,270.330824Q1420.318571,69.945738,2289.91423,287.344652" transform="translate(.000001 0.000002)" fill="none" stroke="#3f5787" stroke-width="3.84"/><path d="M-305.639769,875.266935c716.471206-444.249956,315.701032,20.794678,862.033957-58.603186s839.348854-542.552073,948.993524-474.496761-13.232978,693.7861,586.031857,576.579729q599.264835-117.206371,204.165937-73.726588" transform="translate(.000001 0.000001)" fill="none" stroke="#3f5787" stroke-width="3.84"/></svg>
